<?xml version="1.0" standalone="no"?>
<svg version="1.1" xmlns="http://www.w3.org/2000/svg" xmlns:xlink="http://www.w3.org/1999/xlink" x="0px" y="0px" width="2015px" height="430px" viewBox="0 0 2015 430" enable-background="new 0 0 2015 430" xml:space="preserve"><polygon fill="#FFFFFF" points="1719,208 1293,208 1261,158 1229,208 30,208 30,30 1719,30"/><path xmlns="http://www.w3.org/2000/svg" fill="#141412" font-weight="bold" d="M109.26 144.79L149.52 144.79L149.52 161.62L87.70 161.62L87.70 84.62L148.09 84.62L148.09 101.45L109.26 101.45L109.26 114.43L143.47 114.43L143.47 130.71L109.26 130.71L109.26 144.79ZM209.25 161.62L195.28 141.16L183.40 141.16L183.40 161.62L161.62 161.62L161.62 84.62L196.82 84.62Q207.27 84.62 214.97 88.08Q222.67 91.55 226.85 97.98Q231.03 104.42 231.03 113.11L231.03 113.11Q231.03 121.47 227.13 127.68Q223.22 133.90 215.96 137.42L215.96 137.42L232.57 161.62L209.25 161.62ZM209.03 113.11Q209.03 107.72 205.62 104.75Q202.21 101.78 195.50 101.78L195.50 101.78L183.40 101.78L183.40 124.33L195.50 124.33Q202.21 124.33 205.62 121.41Q209.03 118.50 209.03 113.11L209.03 113.11ZM243.02 161.62L243.02 84.62L264.80 84.62L264.80 144.35L301.54 144.35L301.54 161.62L243.02 161.62ZM331.68 144.79L371.94 144.79L371.94 161.62L310.12 161.62L310.12 84.62L370.51 84.62L370.51 101.45L331.68 101.45L331.68 114.43L365.89 114.43L365.89 130.71L331.68 130.71L331.68 144.79ZM443.22 121.47Q449.82 123.78 453.56 128.67Q457.30 133.57 457.30 140.50L457.30 140.50Q457.30 150.62 449.16 156.12Q441.02 161.62 425.62 161.62L425.62 161.62L384.04 161.62L384.04 84.62L423.42 84.62Q438.16 84.62 445.86 90.06Q453.56 95.51 453.56 104.75L453.56 104.75Q453.56 110.25 450.87 114.59Q448.17 118.94 443.22 121.47L443.22 121.47ZM420.56 100.35L405.60 100.35L405.60 115.20L420.56 115.20Q431.56 115.20 431.56 107.72L431.56 107.72Q431.56 100.35 420.56 100.35L420.56 100.35ZM423.86 145.89Q435.30 145.89 435.30 138.08L435.30 138.08Q435.30 130.27 423.86 130.27L423.86 130.27L405.60 130.27L405.60 145.89L423.86 145.89ZM520.55 84.62L541.89 84.62L541.89 161.62L523.96 161.62L489.97 120.59L489.97 161.62L468.63 161.62L468.63 84.62L486.56 84.62L520.55 125.65L520.55 84.62ZM557.29 161.62L557.29 84.62L579.07 84.62L579.07 161.62L557.29 161.62ZM621.64 163.16Q612.29 163.16 603.49 160.85Q594.69 158.54 589.19 154.69L589.19 154.69L596.34 138.63Q601.51 142.04 608.33 144.13Q615.15 146.22 621.75 146.22L621.75 146.22Q634.29 146.22 634.29 139.95L634.29 139.95Q634.29 136.65 630.72 135.05Q627.14 133.46 619.22 131.70L619.22 131.70Q610.53 129.83 604.70 127.68Q598.87 125.54 594.69 120.81Q590.51 116.08 590.51 108.05L590.51 108.05Q590.51 101.01 594.36 95.34Q598.21 89.68 605.86 86.38Q613.50 83.08 624.61 83.08L624.61 83.08Q632.20 83.08 639.57 84.78Q646.94 86.49 652.55 89.79L652.55 89.79L645.84 105.96Q634.84 100.02 624.50 100.02L624.50 100.02Q618.01 100.02 615.04 101.94Q612.07 103.87 612.07 106.95L612.07 106.95Q612.07 110.03 615.59 111.57Q619.11 113.11 626.92 114.76L626.92 114.76Q635.72 116.63 641.50 118.77Q647.27 120.92 651.50 125.59Q655.74 130.27 655.74 138.30L655.74 138.30Q655.74 145.23 651.89 150.84Q648.04 156.45 640.34 159.80Q632.64 163.16 621.64 163.16L621.64 163.16ZM692.81 163.16Q683.46 163.16 674.66 160.85Q665.86 158.54 660.36 154.69L660.36 154.69L667.51 138.63Q672.68 142.04 679.50 144.13Q686.32 146.22 692.92 146.22L692.92 146.22Q705.46 146.22 705.46 139.95L705.46 139.95Q705.46 136.65 701.88 135.05Q698.31 133.46 690.39 131.70L690.39 131.70Q681.70 129.83 675.87 127.68Q670.04 125.54 665.86 120.81Q661.68 116.08 661.68 108.05L661.68 108.05Q661.68 101.01 665.53 95.34Q669.38 89.68 677.02 86.38Q684.67 83.08 695.78 83.08L695.78 83.08Q703.37 83.08 710.74 84.78Q718.11 86.49 723.72 89.79L723.72 89.79L717.01 105.96Q706.01 100.02 695.67 100.02L695.67 100.02Q689.18 100.02 686.21 101.94Q683.24 103.87 683.24 106.95L683.24 106.95Q683.24 110.03 686.76 111.57Q690.28 113.11 698.09 114.76L698.09 114.76Q706.89 116.63 712.66 118.77Q718.44 120.92 722.67 125.59Q726.91 130.27 726.91 138.30L726.91 138.30Q726.91 145.23 723.06 150.84Q719.21 156.45 711.51 159.80Q703.81 163.16 692.81 163.16L692.81 163.16ZM758.48 144.79L798.74 144.79L798.74 161.62L736.92 161.62L736.92 84.62L797.31 84.62L797.31 101.45L758.48 101.45L758.48 114.43L792.69 114.43L792.69 130.71L758.48 130.71L758.48 144.79ZM842.85 161.62L842.85 84.62L864.63 84.62L864.63 161.62L842.85 161.62ZM932.06 84.62L953.40 84.62L953.40 161.62L935.47 161.62L901.48 120.59L901.48 161.62L880.14 161.62L880.14 84.62L898.07 84.62L932.06 125.65L932.06 84.62ZM1000.81 161.62L1000.81 84.62L1037.22 84.62Q1049.87 84.62 1059.66 89.35Q1069.45 94.08 1074.84 102.77Q1080.23 111.46 1080.23 123.12L1080.23 123.12Q1080.23 134.78 1074.84 143.47Q1069.45 152.16 1059.66 156.89Q1049.87 161.62 1037.22 161.62L1037.22 161.62L1000.81 161.62ZM1022.59 144.24L1036.34 144.24Q1046.24 144.24 1052.23 138.63Q1058.23 133.02 1058.23 123.12L1058.23 123.12Q1058.23 113.22 1052.23 107.61Q1046.24 102.00 1036.34 102.00L1036.34 102.00L1022.59 102.00L1022.59 144.24ZM1113.23 144.79L1153.49 144.79L1153.49 161.62L1091.67 161.62L1091.67 84.62L1152.06 84.62L1152.06 101.45L1113.23 101.45L1113.23 114.43L1147.44 114.43L1147.44 130.71L1113.23 130.71L1113.23 144.79ZM1213.22 161.62L1199.25 141.16L1187.37 141.16L1187.37 161.62L1165.59 161.62L1165.59 84.62L1200.79 84.62Q1211.24 84.62 1218.94 88.08Q1226.64 91.55 1230.82 97.98Q1235.00 104.42 1235.00 113.11L1235.00 113.11Q1235.00 121.47 1231.09 127.68Q1227.19 133.90 1219.93 137.42L1219.93 137.42L1236.54 161.62L1213.22 161.62ZM1213.00 113.11Q1213.00 107.72 1209.59 104.75Q1206.18 101.78 1199.47 101.78L1199.47 101.78L1187.37 101.78L1187.37 124.33L1199.47 124.33Q1206.18 124.33 1209.59 121.41Q1213.00 118.50 1213.00 113.11L1213.00 113.11ZM1330.92 84.62L1352.26 84.62L1352.26 161.62L1334.33 161.62L1300.34 120.59L1300.34 161.62L1279 161.62L1279 84.62L1296.93 84.62L1330.92 125.65L1330.92 84.62ZM1425.30 161.62L1419.25 146.66L1386.69 146.66L1380.64 161.62L1358.42 161.62L1392.41 84.62L1413.86 84.62L1447.96 161.62L1425.30 161.62ZM1393.07 130.60L1412.87 130.60L1402.97 105.96L1393.07 130.60ZM1466.66 161.62L1466.66 101.89L1443.01 101.89L1443.01 84.62L1511.98 84.62L1511.98 101.89L1488.44 101.89L1488.44 161.62L1466.66 161.62ZM1554.44 163.16Q1537.28 163.16 1527.77 153.81Q1518.25 144.46 1518.25 127.30L1518.25 127.30L1518.25 84.62L1540.03 84.62L1540.03 126.64Q1540.03 145.12 1554.66 145.12L1554.66 145.12Q1569.18 145.12 1569.18 126.64L1569.18 126.64L1569.18 84.62L1590.63 84.62L1590.63 127.30Q1590.63 144.46 1581.12 153.81Q1571.60 163.16 1554.44 163.16L1554.44 163.16ZM1653 161.62L1639.03 141.16L1627.15 141.16L1627.15 161.62L1605.37 161.62L1605.37 84.62L1640.57 84.62Q1651.02 84.62 1658.72 88.08Q1666.42 91.55 1670.60 97.98Q1674.78 104.42 1674.78 113.11L1674.78 113.11Q1674.78 121.47 1670.88 127.68Q1666.97 133.90 1659.71 137.42L1659.71 137.42L1676.32 161.62L1653 161.62ZM1652.78 113.11Q1652.78 107.72 1649.37 104.75Q1645.96 101.78 1639.25 101.78L1639.25 101.78L1627.15 101.78L1627.15 124.33L1639.25 124.33Q1645.96 124.33 1649.37 121.41Q1652.78 118.50 1652.78 113.11L1652.78 113.11Z"/><polygon fill="#FFFFFF" points="1985,400 1096,400 1096,222 1237,222 1261,185 1285,222 1985,222"/><g><path fill="#323394" d="M1430.931,295.371c-0.181-0.641-0.267-1.301-0.327-1.85l12.602,12.581 C1436.397,303.64,1432.158,303.975,1430.931,295.371"/><path fill="#c41333" d="M1511.722,337.954c-8.831,2.554-17.685,4.158-26.022,4.703l31.227,31.223l11.095-41.367 C1523.111,334.417,1517.689,336.222,1511.722,337.954"/><path fill="#c41333" d="M1539.51,286.399c-11.379,7.401-25.311,13.781-38.275,17.489c-17.806,5.161-35.959,6.776-49.823,4.384 l-21.157-21.185l117.507-31.565L1539.51,286.399"/><path fill="#323394" d="M1556.756,308.589c-8.896,10.981-23.162,18.734-46.193,25.432c-23.495,6.697-46.936,6.516-59.736-0.58 c-4.496-2.516-7.312-5.601-8.392-9.293l-6.739-16.765c0.268,0.129,0.535,0.267,0.766,0.5c13.803,7.585,39.672,7.634,65.947,0.128 c21.021-6.073,43.057-18.351,54.348-30.131V308.589"/><path fill="#323394" d="M1516.924,259.621l-82.082,21.879c8.453-12.008,28.283-23.847,51.221-30.49 c6.447-1.871,20.849-4.191,30.861-3.807V259.621"/></g><path xmlns="http://www.w3.org/2000/svg" fill="#141412" font-weight="bold" d="M1184.09 351.16Q1171.99 351.16 1162.37 346.04Q1152.74 340.93 1147.24 331.80Q1141.74 322.67 1141.74 311.12L1141.74 311.12Q1141.74 299.57 1147.24 290.44Q1152.74 281.31 1162.37 276.19Q1171.99 271.08 1184.09 271.08L1184.09 271.08Q1194.65 271.08 1203.12 274.82Q1211.59 278.56 1217.20 285.60L1217.20 285.60L1203.34 298.14Q1195.86 289.12 1185.19 289.12L1185.19 289.12Q1178.92 289.12 1174.03 291.87Q1169.13 294.62 1166.43 299.62Q1163.74 304.63 1163.74 311.12L1163.74 311.12Q1163.74 317.61 1166.43 322.61Q1169.13 327.62 1174.03 330.37Q1178.92 333.12 1185.19 333.12L1185.19 333.12Q1195.86 333.12 1203.34 324.10L1203.34 324.10L1217.20 336.64Q1211.59 343.68 1203.12 347.42Q1194.65 351.16 1184.09 351.16L1184.09 351.16ZM1248.44 332.79L1288.70 332.79L1288.70 349.62L1226.88 349.62L1226.88 272.62L1287.27 272.62L1287.27 289.45L1248.44 289.45L1248.44 302.43L1282.65 302.43L1282.65 318.71L1248.44 318.71L1248.44 332.79ZM1356.24 272.62L1377.80 272.62L1344.80 349.62L1323.35 349.62L1290.46 272.62L1314.00 272.62L1334.90 322.78L1356.24 272.62ZM1382.31 349.62L1382.31 272.62L1404.09 272.62L1404.09 349.62L1382.31 349.62Z"/><path xmlns="http://www.w3.org/2000/svg" fill="#141412" font-weight="bold" d="M1611.18 288.10Q1614.06 289.11 1615.70 291.24Q1617.33 293.38 1617.33 296.40L1617.33 296.40Q1617.33 300.82 1613.78 303.22Q1610.22 305.62 1603.50 305.62L1603.50 305.62L1585.36 305.62L1585.36 272.02L1602.54 272.02Q1608.98 272.02 1612.34 274.40Q1615.70 276.77 1615.70 280.80L1615.70 280.80Q1615.70 283.20 1614.52 285.10Q1613.34 287.00 1611.18 288.10L1611.18 288.10ZM1601.30 278.88L1594.77 278.88L1594.77 285.36L1601.30 285.36Q1606.10 285.36 1606.10 282.10L1606.10 282.10Q1606.10 278.88 1601.30 278.88L1601.30 278.88ZM1602.74 298.76Q1607.73 298.76 1607.73 295.35L1607.73 295.35Q1607.73 291.94 1602.74 291.94L1602.74 291.94L1594.77 291.94L1594.77 298.76L1602.74 298.76ZM1637.78 306.29Q1630.29 306.29 1626.14 302.21Q1621.98 298.13 1621.98 290.64L1621.98 290.64L1621.98 272.02L1631.49 272.02L1631.49 290.36Q1631.49 298.42 1637.87 298.42L1637.87 298.42Q1644.21 298.42 1644.21 290.36L1644.21 290.36L1644.21 272.02L1653.57 272.02L1653.57 290.64Q1653.57 298.13 1649.42 302.21Q1645.26 306.29 1637.78 306.29L1637.78 306.29ZM1676.75 306.29Q1671.47 306.29 1667.27 304.06Q1663.07 301.83 1660.67 297.84Q1658.27 293.86 1658.27 288.82L1658.27 288.82Q1658.27 283.78 1660.67 279.80Q1663.07 275.81 1667.27 273.58Q1671.47 271.35 1676.75 271.35L1676.75 271.35Q1681.36 271.35 1685.06 272.98Q1688.75 274.61 1691.20 277.68L1691.20 277.68L1685.15 283.16Q1681.89 279.22 1677.23 279.22L1677.23 279.22Q1674.50 279.22 1672.36 280.42Q1670.22 281.62 1669.05 283.80Q1667.87 285.99 1667.87 288.82L1667.87 288.82Q1667.87 291.65 1669.05 293.84Q1670.22 296.02 1672.36 297.22Q1674.50 298.42 1677.23 298.42L1677.23 298.42Q1681.89 298.42 1685.15 294.48L1685.15 294.48L1691.20 299.96Q1688.75 303.03 1685.06 304.66Q1681.36 306.29 1676.75 306.29L1676.75 306.29ZM1717.89 272.02L1727.39 272.02L1727.39 305.62L1717.89 305.62L1717.89 292.52L1704.93 292.52L1704.93 305.62L1695.42 305.62L1695.42 272.02L1704.93 272.02L1704.93 284.64L1717.89 284.64L1717.89 272.02ZM1745.92 306.29Q1741.84 306.29 1738.00 305.28Q1734.16 304.28 1731.76 302.60L1731.76 302.60L1734.88 295.59Q1737.14 297.08 1740.11 297.99Q1743.09 298.90 1745.97 298.90L1745.97 298.90Q1751.44 298.90 1751.44 296.16L1751.44 296.16Q1751.44 294.72 1749.88 294.03Q1748.32 293.33 1744.86 292.56L1744.86 292.56Q1741.07 291.75 1738.53 290.81Q1735.98 289.88 1734.16 287.81Q1732.34 285.75 1732.34 282.24L1732.34 282.24Q1732.34 279.17 1734.02 276.70Q1735.70 274.23 1739.03 272.79Q1742.37 271.35 1747.22 271.35L1747.22 271.35Q1750.53 271.35 1753.74 272.09Q1756.96 272.84 1759.41 274.28L1759.41 274.28L1756.48 281.33Q1751.68 278.74 1747.17 278.74L1747.17 278.74Q1744.34 278.74 1743.04 279.58Q1741.74 280.42 1741.74 281.76L1741.74 281.76Q1741.74 283.11 1743.28 283.78Q1744.82 284.45 1748.22 285.17L1748.22 285.17Q1752.06 285.99 1754.58 286.92Q1757.10 287.86 1758.95 289.90Q1760.80 291.94 1760.80 295.44L1760.80 295.44Q1760.80 298.47 1759.12 300.92Q1757.44 303.36 1754.08 304.83Q1750.72 306.29 1745.92 306.29L1745.92 306.29ZM1764.69 295.44L1764.69 288.44L1778.70 288.44L1778.70 295.44L1764.69 295.44ZM1805.15 305.62L1799.06 296.69L1793.87 296.69L1793.87 305.62L1784.37 305.62L1784.37 272.02L1799.73 272.02Q1804.29 272.02 1807.65 273.53Q1811.01 275.04 1812.83 277.85Q1814.66 280.66 1814.66 284.45L1814.66 284.45Q1814.66 288.10 1812.95 290.81Q1811.25 293.52 1808.08 295.06L1808.08 295.06L1815.33 305.62L1805.15 305.62ZM1805.06 284.45Q1805.06 282.10 1803.57 280.80Q1802.08 279.51 1799.15 279.51L1799.15 279.51L1793.87 279.51L1793.87 289.35L1799.15 289.35Q1802.08 289.35 1803.57 288.08Q1805.06 286.80 1805.06 284.45L1805.06 284.45ZM1836.83 306.29Q1831.50 306.29 1827.26 304.04Q1823.01 301.78 1820.58 297.80Q1818.16 293.81 1818.16 288.82L1818.16 288.82Q1818.16 283.83 1820.58 279.84Q1823.01 275.86 1827.26 273.60Q1831.50 271.35 1836.83 271.35L1836.83 271.35Q1842.16 271.35 1846.41 273.60Q1850.66 275.86 1853.08 279.84Q1855.50 283.83 1855.50 288.82L1855.50 288.82Q1855.50 293.81 1853.08 297.80Q1850.66 301.78 1846.41 304.04Q1842.16 306.29 1836.83 306.29L1836.83 306.29ZM1836.83 298.42Q1839.38 298.42 1841.44 297.22Q1843.50 296.02 1844.70 293.84Q1845.90 291.65 1845.90 288.82L1845.90 288.82Q1845.90 285.99 1844.70 283.80Q1843.50 281.62 1841.44 280.42Q1839.38 279.22 1836.83 279.22L1836.83 279.22Q1834.29 279.22 1832.22 280.42Q1830.16 281.62 1828.96 283.80Q1827.76 285.99 1827.76 288.82L1827.76 288.82Q1827.76 291.65 1828.96 293.84Q1830.16 296.02 1832.22 297.22Q1834.29 298.42 1836.83 298.42L1836.83 298.42ZM1882.96 272.02L1892.46 272.02L1892.46 305.62L1882.96 305.62L1882.96 292.52L1870.00 292.52L1870.00 305.62L1860.50 305.62L1860.50 272.02L1870.00 272.02L1870.00 284.64L1882.96 284.64L1882.96 272.02ZM1919.97 305.62L1913.87 296.69L1908.69 296.69L1908.69 305.62L1899.18 305.62L1899.18 272.02L1914.54 272.02Q1919.10 272.02 1922.46 273.53Q1925.82 275.04 1927.65 277.85Q1929.47 280.66 1929.47 284.45L1929.47 284.45Q1929.47 288.10 1927.77 290.81Q1926.06 293.52 1922.90 295.06L1922.90 295.06L1930.14 305.62L1919.97 305.62ZM1919.87 284.45Q1919.87 282.10 1918.38 280.80Q1916.90 279.51 1913.97 279.51L1913.97 279.51L1908.69 279.51L1908.69 289.35L1913.97 289.35Q1916.90 289.35 1918.38 288.08Q1919.87 286.80 1919.87 284.45L1919.87 284.45Z"/><path xmlns="http://www.w3.org/2000/svg" fill="#141412" font-weight="bold" d="M1610.51 349.62L1607.87 343.09L1593.66 343.09L1591.02 349.62L1581.33 349.62L1596.16 316.02L1605.52 316.02L1620.40 349.62L1610.51 349.62ZM1596.45 336.08L1605.09 336.08L1600.77 325.33L1596.45 336.08ZM1649.63 349.62L1646.99 343.09L1632.78 343.09L1630.14 349.62L1620.45 349.62L1635.28 316.02L1644.64 316.02L1659.52 349.62L1649.63 349.62ZM1635.57 336.08L1644.21 336.08L1639.89 325.33L1635.57 336.08ZM1682.99 349.62L1676.90 340.69L1671.71 340.69L1671.71 349.62L1662.21 349.62L1662.21 316.02L1677.57 316.02Q1682.13 316.02 1685.49 317.53Q1688.85 319.04 1690.67 321.85Q1692.50 324.66 1692.50 328.45L1692.50 328.45Q1692.50 332.10 1690.79 334.81Q1689.09 337.52 1685.92 339.06L1685.92 339.06L1693.17 349.62L1682.99 349.62ZM1682.90 328.45Q1682.90 326.10 1681.41 324.80Q1679.92 323.51 1676.99 323.51L1676.99 323.51L1671.71 323.51L1671.71 333.35L1676.99 333.35Q1679.92 333.35 1681.41 332.08Q1682.90 330.80 1682.90 328.45L1682.90 328.45ZM1722.88 349.62L1720.24 343.09L1706.03 343.09L1703.39 349.62L1693.70 349.62L1708.53 316.02L1717.89 316.02L1732.77 349.62L1722.88 349.62ZM1708.82 336.08L1717.46 336.08L1713.14 325.33L1708.82 336.08ZM1750.24 350.29Q1742.75 350.29 1738.60 346.21Q1734.45 342.13 1734.45 334.64L1734.45 334.64L1734.45 316.02L1743.95 316.02L1743.95 334.36Q1743.95 342.42 1750.34 342.42L1750.34 342.42Q1756.67 342.42 1756.67 334.36L1756.67 334.36L1756.67 316.02L1766.03 316.02L1766.03 334.64Q1766.03 342.13 1761.88 346.21Q1757.73 350.29 1750.24 350.29L1750.24 350.29Z"/></svg>