<svg xmlns="http://www.w3.org/2000/svg" width="2015" height="430"  xmlns:v="https://vecta.io/nano"><path fill="#fff" d="M1719 208h-426l-32-50-32 50H30V30h1689z"/><path fill="#141412" d="M109.26 144.79h40.26v16.83H87.7v-77h60.39v16.83h-38.83v12.98h34.21v16.28h-34.21v14.08zm99.99 16.83l-13.97-20.46H183.4v20.46h-21.78v-77h35.2q10.45 0 18.15 3.46 7.7 3.47 11.88 9.9 4.18 6.44 4.18 15.13h0q0 8.36-3.9 14.57-3.91 6.22-11.17 9.74h0l16.61 24.2h-23.32zm-.22-48.51q0-5.39-3.41-8.36-3.41-2.97-10.12-2.97h0-12.1v22.55h12.1q6.71 0 10.12-2.92 3.41-2.91 3.41-8.3h0zm33.99 48.51v-77h21.78v59.73h36.74v17.27h-58.52zm88.66-16.83h40.26v16.83h-61.82v-77h60.39v16.83h-38.83v12.98h34.21v16.28h-34.21v14.08zm111.54-23.32q6.6 2.31 10.34 7.2 3.74 4.9 3.74 11.83h0q0 10.12-8.14 15.62-8.14 5.5-23.54 5.5h0-41.58v-77h39.38q14.74 0 22.44 5.44 7.7 5.45 7.7 14.69h0q0 5.5-2.69 9.84-2.7 4.35-7.65 6.88h0zm-22.66-21.12H405.6v14.85h14.96q11 0 11-7.48h0q0-7.37-11-7.37h0zm3.3 45.54q11.44 0 11.44-7.81h0q0-7.81-11.44-7.81h0-18.26v15.62h18.26zm96.69-61.27h21.34v77h-17.93l-33.99-41.03v41.03h-21.34v-77h17.93l33.99 41.03V84.62zm36.74 77v-77h21.78v77h-21.78zm64.35 1.54q-9.35 0-18.15-2.31-8.8-2.31-14.3-6.16h0l7.15-16.06q5.17 3.41 11.99 5.5 6.82 2.09 13.42 2.09h0q12.54 0 12.54-6.27h0q0-3.3-3.57-4.9-3.58-1.59-11.5-3.35h0q-8.69-1.87-14.52-4.02-5.83-2.14-10.01-6.87-4.18-4.73-4.18-12.76h0q0-7.04 3.85-12.71 3.85-5.66 11.5-8.96 7.64-3.3 18.75-3.3h0q7.59 0 14.96 1.7 7.37 1.71 12.98 5.01h0l-6.71 16.17q-11-5.94-21.34-5.94h0q-6.49 0-9.46 1.92-2.97 1.93-2.97 5.01h0q0 3.08 3.52 4.62 3.52 1.54 11.33 3.19h0q8.8 1.87 14.58 4.01 5.77 2.15 10 6.82 4.24 4.68 4.24 12.71h0q0 6.93-3.85 12.54-3.85 5.61-11.55 8.96-7.7 3.36-18.7 3.36h0zm71.17 0q-9.35 0-18.15-2.31-8.8-2.31-14.3-6.16h0l7.15-16.06q5.17 3.41 11.99 5.5 6.82 2.09 13.42 2.09h0q12.54 0 12.54-6.27h0q0-3.3-3.58-4.9-3.57-1.59-11.49-3.35h0q-8.69-1.87-14.52-4.02-5.83-2.14-10.01-6.87-4.18-4.73-4.18-12.76h0q0-7.04 3.85-12.71 3.85-5.66 11.49-8.96 7.65-3.3 18.76-3.3h0q7.59 0 14.96 1.7 7.37 1.71 12.98 5.01h0l-6.71 16.17q-11-5.94-21.34-5.94h0q-6.49 0-9.46 1.92-2.97 1.93-2.97 5.01h0q0 3.08 3.52 4.62 3.52 1.54 11.33 3.19h0q8.8 1.87 14.57 4.01 5.78 2.15 10.01 6.82 4.24 4.68 4.24 12.71h0q0 6.93-3.85 12.54-3.85 5.61-11.55 8.96-7.7 3.36-18.7 3.36h0zm65.67-18.37h40.26v16.83h-61.82v-77h60.39v16.83h-38.83v12.98h34.21v16.28h-34.21v14.08zm84.37 16.83v-77h21.78v77h-21.78zm89.21-77h21.34v77h-17.93l-33.99-41.03v41.03h-21.34v-77h17.93l33.99 41.03V84.62zm68.75 77v-77h36.41q12.65 0 22.44 4.73 9.79 4.73 15.18 13.42 5.39 8.69 5.39 20.35h0q0 11.66-5.39 20.35-5.39 8.69-15.18 13.42-9.79 4.73-22.44 4.73h0-36.41zm21.78-17.38h13.75q9.9 0 15.89-5.61 6-5.61 6-15.51h0q0-9.9-6-15.51-5.99-5.61-15.89-5.61h0-13.75v42.24zm90.64.55h40.26v16.83h-61.82v-77h60.39v16.83h-38.83v12.98h34.21v16.28h-34.21v14.08zm99.99 16.83l-13.97-20.46h-11.88v20.46h-21.78v-77h35.2q10.45 0 18.15 3.46 7.7 3.47 11.88 9.9 4.18 6.44 4.18 15.13h0q0 8.36-3.91 14.57-3.9 6.22-11.16 9.74h0l16.61 24.2h-23.32zm-.22-48.51q0-5.39-3.41-8.36-3.41-2.97-10.12-2.97h0-12.1v22.55h12.1q6.71 0 10.12-2.92 3.41-2.91 3.41-8.3h0zm117.92-28.49h21.34v77h-17.93l-33.99-41.03v41.03H1279v-77h17.93l33.99 41.03V84.62zm94.38 77l-6.05-14.96h-32.56l-6.05 14.96h-22.22l33.99-77h21.45l34.1 77h-22.66zm-32.23-31.02h19.8l-9.9-24.64-9.9 24.64zm73.59 31.02v-59.73h-23.65V84.62h68.97v17.27h-23.54v59.73h-21.78zm87.78 1.54q-17.16 0-26.67-9.35-9.52-9.35-9.52-26.51h0V84.62h21.78v42.02q0 18.48 14.63 18.48h0q14.52 0 14.52-18.48h0V84.62h21.45v42.68q0 17.16-9.51 26.51-9.52 9.35-26.68 9.35h0zm98.56-1.54l-13.97-20.46h-11.88v20.46h-21.78v-77h35.2q10.45 0 18.15 3.46 7.7 3.47 11.88 9.9 4.18 6.44 4.18 15.13h0q0 8.36-3.9 14.57-3.91 6.22-11.17 9.74h0l16.61 24.2H1653zm-.22-48.51q0-5.39-3.41-8.36-3.41-2.97-10.12-2.97h0-12.1v22.55h12.1q6.71 0 10.12-2.92 3.41-2.91 3.41-8.3h0z"/><path fill="#fff" d="M1985 400h-889V222h141l24-37 24 37h700z"/><path fill="#323394" d="M1430.931 295.371c-.181-.641-.267-1.301-.327-1.85l12.602 12.581c-6.809-2.462-11.048-2.127-12.275-10.731"/><path d="M1511.722 337.954c-8.831 2.554-17.685 4.158-26.022 4.703l31.227 31.223 11.095-41.367c-4.911 1.904-10.333 3.709-16.3 5.441m27.788-51.555c-11.379 7.401-25.311 13.781-38.275 17.489-17.806 5.161-35.959 6.776-49.823 4.384l-21.157-21.185 117.507-31.565-8.252 30.877" fill="#c41333"/><path d="M1556.756 308.589c-8.896 10.981-23.162 18.734-46.193 25.432-23.495 6.697-46.936 6.516-59.736-.58-4.496-2.516-7.312-5.601-8.392-9.293l-6.739-16.765c.268.129.535.267.766.5 13.803 7.585 39.672 7.634 65.947.128 21.021-6.073 43.057-18.351 54.348-30.131v30.709m-39.833-48.968l-82.082 21.879c8.453-12.008 28.283-23.847 51.221-30.49 6.447-1.871 20.849-4.191 30.861-3.807v12.418" fill="#323394"/><path d="M1184.09 351.16q-12.1 0-21.72-5.12-9.63-5.11-15.13-14.24-5.5-9.13-5.5-20.68h0q0-11.55 5.5-20.68 5.5-9.13 15.13-14.25 9.62-5.11 21.72-5.11h0q10.56 0 19.03 3.74 8.47 3.74 14.08 10.78h0l-13.86 12.54q-7.48-9.02-18.15-9.02h0q-6.27 0-11.16 2.75-4.9 2.75-7.6 7.75-2.69 5.01-2.69 11.5h0q0 6.49 2.69 11.49 2.7 5.01 7.6 7.76 4.89 2.75 11.16 2.75h0q10.67 0 18.15-9.02h0l13.86 12.54q-5.61 7.04-14.08 10.78-8.47 3.74-19.03 3.74h0zm64.35-18.37h40.26v16.83h-61.82v-77h60.39v16.83h-38.83v12.98h34.21v16.28h-34.21v14.08zm107.8-60.17h21.56l-33 77h-21.45l-32.89-77H1314l20.9 50.16 21.34-50.16zm26.07 77v-77h21.78v77h-21.78zm228.87-61.52q2.88 1.01 4.52 3.14 1.63 2.14 1.63 5.16h0q0 4.42-3.55 6.82-3.56 2.4-10.28 2.4h0-18.14v-33.6h17.18q6.44 0 9.8 2.38 3.36 2.37 3.36 6.4h0q0 2.4-1.18 4.3-1.18 1.9-3.34 3h0zm-9.88-9.22h-6.53v6.48h6.53q4.8 0 4.8-3.26h0q0-3.22-4.8-3.22h0zm1.44 19.88q4.99 0 4.99-3.41h0q0-3.41-4.99-3.41h0-7.97v6.82h7.97zm35.04 7.53q-7.49 0-11.64-4.08-4.16-4.08-4.16-11.57h0v-18.62h9.51v18.34q0 8.06 6.38 8.06h0q6.34 0 6.34-8.06h0v-18.34h9.36v18.62q0 7.49-4.15 11.57-4.16 4.08-11.64 4.08h0zm38.97 0q-5.28 0-9.48-2.23-4.2-2.23-6.6-6.22-2.4-3.98-2.4-9.02h0q0-5.04 2.4-9.02 2.4-3.99 6.6-6.22 4.2-2.23 9.48-2.23h0q4.61 0 8.31 1.63 3.69 1.63 6.14 4.7h0l-6.05 5.48q-3.26-3.94-7.92-3.94h0q-2.73 0-4.87 1.2-2.14 1.2-3.31 3.38-1.18 2.19-1.18 5.02h0q0 2.83 1.18 5.02 1.17 2.18 3.31 3.38 2.14 1.2 4.87 1.2h0q4.66 0 7.92-3.94h0l6.05 5.48q-2.45 3.07-6.14 4.7-3.7 1.63-8.31 1.63h0zm41.14-34.27h9.5v33.6h-9.5v-13.1h-12.96v13.1h-9.51v-33.6h9.51v12.62h12.96v-12.62zm28.03 34.27q-4.08 0-7.92-1.01-3.84-1-6.24-2.68h0l3.12-7.01q2.26 1.49 5.23 2.4 2.98.91 5.86.91h0q5.47 0 5.47-2.74h0q0-1.44-1.56-2.13-1.56-.7-5.02-1.47h0q-3.79-.81-6.33-1.75-2.55-.93-4.37-3-1.82-2.06-1.82-5.57h0q0-3.07 1.68-5.54 1.68-2.47 5.01-3.91 3.34-1.44 8.19-1.44h0q3.31 0 6.52.74 3.22.75 5.67 2.19h0l-2.93 7.05q-4.8-2.59-9.31-2.59h0q-2.83 0-4.13.84-1.3.84-1.3 2.18h0q0 1.35 1.54 2.02 1.54.67 4.94 1.39h0q3.84.82 6.36 1.75 2.52.94 4.37 2.98 1.85 2.04 1.85 5.54h0q0 3.03-1.68 5.48-1.68 2.44-5.04 3.91-3.36 1.46-8.16 1.46h0zm18.77-10.85v-7h14.01v7h-14.01zm40.46 10.18l-6.09-8.93h-5.19v8.93h-9.5v-33.6h15.36q4.56 0 7.92 1.51 3.36 1.51 5.18 4.32 1.83 2.81 1.83 6.6h0q0 3.65-1.71 6.36-1.7 2.71-4.87 4.25h0l7.25 10.56h-10.18zm-.09-21.17q0-2.35-1.49-3.65-1.49-1.29-4.42-1.29h0-5.28v9.84h5.28q2.93 0 4.42-1.27 1.49-1.28 1.49-3.63h0zm31.77 21.84q-5.33 0-9.57-2.25-4.25-2.26-6.68-6.24-2.42-3.99-2.42-8.98h0q0-4.99 2.42-8.98 2.43-3.98 6.68-6.24 4.24-2.25 9.57-2.25h0q5.33 0 9.58 2.25 4.25 2.26 6.67 6.24 2.42 3.99 2.42 8.98h0q0 4.99-2.42 8.98-2.42 3.98-6.67 6.24-4.25 2.25-9.58 2.25h0zm0-7.87q2.55 0 4.61-1.2 2.06-1.2 3.26-3.38 1.2-2.19 1.2-5.02h0q0-2.83-1.2-5.02-1.2-2.18-3.26-3.38-2.06-1.2-4.61-1.2h0q-2.54 0-4.61 1.2-2.06 1.2-3.26 3.38-1.2 2.19-1.2 5.02h0q0 2.83 1.2 5.02 1.2 2.18 3.26 3.38 2.07 1.2 4.61 1.2h0zm46.13-26.4h9.5v33.6h-9.5v-13.1H1870v13.1h-9.5v-33.6h9.5v12.62h12.96v-12.62zm37.01 33.6l-6.1-8.93h-5.18v8.93h-9.51v-33.6h15.36q4.56 0 7.92 1.51 3.36 1.51 5.19 4.32 1.82 2.81 1.82 6.6h0q0 3.65-1.7 6.36-1.71 2.71-4.87 4.25h0l7.24 10.56h-10.17zm-.1-21.17q0-2.35-1.49-3.65-1.48-1.29-4.41-1.29h0-5.28v9.84h5.28q2.93 0 4.41-1.27 1.49-1.28 1.49-3.63h0zm-309.36 65.17l-2.64-6.53h-14.21l-2.64 6.53h-9.69l14.83-33.6h9.36l14.88 33.6h-9.89zm-14.06-13.54h8.64l-4.32-10.75-4.32 10.75zm53.18 13.54l-2.64-6.53h-14.21l-2.64 6.53h-9.69l14.83-33.6h9.36l14.88 33.6h-9.89zm-14.06-13.54h8.64l-4.32-10.75-4.32 10.75zm47.42 13.54l-6.09-8.93h-5.19v8.93h-9.5v-33.6h15.36q4.56 0 7.92 1.51 3.36 1.51 5.18 4.32 1.83 2.81 1.83 6.6h0q0 3.65-1.71 6.36-1.7 2.71-4.87 4.25h0l7.25 10.56h-10.18zm-.09-21.17q0-2.35-1.49-3.65-1.49-1.29-4.42-1.29h0-5.28v9.84h5.28q2.93 0 4.42-1.27 1.49-1.28 1.49-3.63h0zm39.98 21.17l-2.64-6.53h-14.21l-2.64 6.53h-9.69l14.83-33.6h9.36l14.88 33.6h-9.89zm-14.06-13.54h8.64l-4.32-10.75-4.32 10.75zm41.42 14.21q-7.49 0-11.64-4.08-4.15-4.08-4.15-11.57h0v-18.62h9.5v18.34q0 8.06 6.39 8.06h0q6.33 0 6.33-8.06h0v-18.34h9.36v18.62q0 7.49-4.15 11.57-4.15 4.08-11.64 4.08h0z" fill="#141412"/></svg>