<?xml version="1.0" standalone="no"?>
<!DOCTYPE svg PUBLIC "-//W3C//DTD SVG 20010904//EN"
 "http://www.w3.org/TR/2001/REC-SVG-20010904/DTD/svg10.dtd">
<svg version="1.0" xmlns="http://www.w3.org/2000/svg"
 width="700.000000pt" height="700.000000pt" viewBox="0 0 700.000000 700.000000"
 preserveAspectRatio="xMidYMid meet">
<metadata>
Created by potrace 1.11, written by Peter Selinger 2001-2013
</metadata>
<g transform="translate(0.000000,700.000000) scale(0.100000,-0.100000)"
fill="#000000" stroke="none">
<path d="M4527 6954 c-1 -1 -58 -4 -127 -8 -69 -4 -141 -8 -160 -11 -19 -2
-64 -6 -100 -9 -36 -4 -85 -9 -110 -12 -87 -10 -205 -25 -230 -29 -14 -2 -70
-11 -125 -20 -55 -8 -147 -25 -205 -36 -58 -11 -116 -23 -130 -25 -208 -40
-734 -208 -995 -319 -263 -110 -364 -157 -550 -250 -579 -293 -1035 -623
-1340 -971 -77 -88 -151 -184 -142 -184 3 0 42 11 88 24 46 13 147 41 224 61
77 20 179 48 227 61 47 13 113 30 145 38 32 8 110 29 173 46 63 17 214 58 335
90 121 32 447 119 725 194 278 74 541 144 585 156 44 12 112 30 150 40 467
126 563 152 580 155 10 3 163 43 340 91 176 48 394 106 485 130 91 24 221 59
290 77 l125 34 3 336 c2 266 0 337 -10 338 -19 2 -249 4 -251 3z"/>
<path d="M6459 6496 c-3 -3 -185 -53 -259 -71 -8 -2 -98 -26 -200 -53 -589
-159 -652 -176 -1215 -327 -27 -7 -228 -61 -445 -120 -217 -58 -438 -118 -490
-131 -88 -24 -406 -109 -815 -220 -93 -25 -178 -48 -189 -50 -10 -2 -33 -8
-50 -13 -30 -10 -912 -247 -986 -266 -8 -2 -184 -49 -390 -105 -545 -147 -938
-252 -1164 -313 l-199 -53 551 -550 c303 -302 564 -562 580 -577 24 -24 44
-30 123 -42 185 -28 370 -39 639 -39 209 0 476 9 527 18 10 2 54 7 98 10 44 4
91 9 105 11 14 2 49 7 79 10 30 4 61 8 70 10 9 1 39 6 66 9 28 4 64 9 80 12
17 3 44 7 60 10 17 2 41 6 55 9 14 3 39 7 55 10 17 2 55 9 85 15 30 6 66 14
80 16 70 14 343 77 428 100 53 14 115 30 136 35 78 19 437 135 491 158 22 10
54 21 70 25 17 4 44 14 60 21 17 8 100 42 185 76 210 84 298 123 532 239 200
98 333 169 503 268 104 61 288 174 303 187 4 3 38 129 157 575 54 201 108 404
121 451 14 47 26 95 29 105 2 10 16 64 31 119 51 190 83 310 99 369 15 52 16
74 4 62z"/>
<path d="M6928 5242 c-13 -15 -64 -63 -113 -107 -48 -44 -93 -85 -99 -90 -101
-94 -431 -336 -641 -469 -267 -170 -714 -412 -970 -527 -388 -172 -732 -301
-1084 -405 -84 -25 -161 -47 -170 -49 -9 -2 -36 -8 -61 -15 -25 -7 -52 -14
-60 -15 -8 -2 -82 -20 -165 -39 -82 -19 -161 -37 -175 -40 -14 -2 -61 -12
-105 -21 -44 -9 -93 -18 -110 -21 -16 -3 -55 -9 -85 -14 -30 -5 -68 -11 -85
-14 -16 -2 -61 -9 -100 -15 -83 -13 -206 -28 -290 -36 -33 -3 -78 -8 -100 -10
-255 -27 -929 -27 -1073 -1 -9 2 -51 7 -92 11 -41 4 -93 11 -115 15 -22 5 -58
11 -80 14 -23 4 -50 8 -60 10 -258 54 -472 125 -645 212 -46 24 -86 42 -87 40
-2 -1 75 -196 170 -432 95 -236 188 -467 207 -514 59 -150 141 -255 284 -361
217 -162 511 -275 891 -343 17 -3 39 -8 50 -10 11 -2 47 -7 80 -11 32 -4 66
-8 75 -10 8 -1 60 -6 115 -10 55 -4 116 -9 135 -11 50 -4 494 -4 560 1 30 2
87 6 125 10 39 3 99 8 135 11 74 6 265 30 355 44 33 5 77 12 99 16 21 3 48 8
60 10 11 2 46 8 76 14 30 6 65 12 78 15 47 10 69 15 122 26 269 53 816 216
1182 350 454 167 871 373 1168 578 52 35 100 69 105 73 6 4 48 38 95 75 102
80 149 122 255 228 96 97 175 185 176 200 5 49 3 1658 -2 1661 -3 2 -17 -9
-31 -24z"/>
<path d="M85 4373 c20 -132 111 -282 239 -391 78 -67 220 -151 336 -199 l105
-44 -340 341 c-187 187 -342 340 -344 340 -2 0 0 -21 4 -47z"/>
<path d="M5305 2264 c-144 -60 -761 -259 -941 -303 -21 -5 -84 -21 -139 -34
-205 -51 -430 -97 -600 -122 -22 -4 -67 -10 -100 -15 -33 -5 -82 -12 -110 -15
-27 -3 -66 -8 -85 -11 -19 -3 -60 -7 -90 -9 -67 -6 -144 -15 -147 -19 -1 -1
379 -384 846 -850 658 -658 849 -844 853 -829 9 31 109 397 113 413 10 41 101
381 135 504 21 78 52 193 69 256 68 259 223 841 245 920 36 127 38 140 24 140
-7 -1 -40 -12 -73 -26z"/>
</g>
</svg>
